<svg width="484" height="168" viewBox="0 0 484 168" fill="none" xmlns="http://www.w3.org/2000/svg">
<path d="M4.64 62V20.24H10.701V56.287H29.609V62H4.64ZM34.5327 62V20.24H61.2127V25.953H40.5937V37.669H57.7327V43.382H40.5937V56.287H61.2127V62H34.5327ZM78.5882 62V25.953H64.6972V20.24H98.5402V25.953H84.6492V62H78.5882ZM103.761 34.16L104.138 31.463C104.969 31.521 105.617 31.3663 106.081 30.999C106.545 30.6317 106.854 30.1193 107.009 29.462C107.164 28.8047 107.193 28.0603 107.096 27.229H103.761V20.24H110.17V27.809C110.17 30.0903 109.619 31.811 108.517 32.971C107.434 34.131 105.849 34.5273 103.761 34.16ZM131.29 62.87C128.293 62.87 125.586 62.3577 123.17 61.333C120.772 60.289 118.791 58.81 117.225 56.896C115.678 54.9627 114.673 52.6717 114.209 50.023L120.531 49.066C121.169 51.618 122.503 53.6093 124.533 55.04C126.563 56.4513 128.931 57.157 131.638 57.157C133.32 57.157 134.866 56.896 136.278 56.374C137.689 55.8327 138.82 55.069 139.671 54.083C140.541 53.0777 140.976 51.879 140.976 50.487C140.976 49.733 140.84 49.066 140.57 48.486C140.318 47.906 139.961 47.4033 139.497 46.978C139.052 46.5333 138.501 46.1563 137.844 45.847C137.206 45.5183 136.5 45.238 135.727 45.006L125.026 41.845C123.982 41.5357 122.918 41.1393 121.836 40.656C120.753 40.1533 119.757 39.5057 118.849 38.713C117.959 37.901 117.234 36.9053 116.674 35.726C116.113 34.5273 115.833 33.0773 115.833 31.376C115.833 28.8047 116.49 26.6297 117.805 24.851C119.139 23.053 120.937 21.6997 123.199 20.791C125.461 19.863 127.993 19.399 130.797 19.399C133.619 19.4377 136.142 19.9403 138.366 20.907C140.608 21.8737 142.464 23.2657 143.934 25.083C145.422 26.881 146.447 29.0657 147.008 31.637L140.512 32.739C140.222 31.173 139.603 29.8293 138.656 28.708C137.708 27.5673 136.548 26.6973 135.176 26.098C133.803 25.4793 132.314 25.1603 130.71 25.141C129.163 25.1023 127.742 25.3343 126.447 25.837C125.171 26.3397 124.146 27.0453 123.373 27.954C122.619 28.8627 122.242 29.9067 122.242 31.086C122.242 32.246 122.58 33.1837 123.257 33.899C123.933 34.6143 124.765 35.1847 125.751 35.61C126.756 36.016 127.752 36.3543 128.738 36.625L136.452 38.8C137.418 39.0707 138.511 39.438 139.729 39.902C140.966 40.3467 142.155 40.975 143.296 41.787C144.456 42.599 145.413 43.6817 146.167 45.035C146.921 46.369 147.298 48.051 147.298 50.081C147.298 52.1883 146.872 54.0443 146.022 55.649C145.171 57.2343 144.001 58.5683 142.513 59.651C141.043 60.7143 139.342 61.5167 137.409 62.058C135.475 62.5993 133.436 62.87 131.29 62.87Z" fill="white"/>
<g filter="url(#filter0_i_83_2140)">
<rect x="160" y="6.5" width="130" height="66" rx="33" fill="#4A2CED"/>
<path fill-rule="evenodd" clip-rule="evenodd" d="M220.312 29.1875L234.375 29.1875C234.624 29.1875 234.862 29.2863 235.038 29.4621C235.214 29.6379 235.312 29.8764 235.312 30.125V44.1875C235.312 44.7053 234.893 45.125 234.375 45.125C233.857 45.125 233.438 44.7053 233.438 44.1875V32.3883L216.288 49.5379C215.922 49.904 215.328 49.904 214.962 49.5379C214.596 49.1718 214.596 48.5782 214.962 48.2121L232.112 31.0625L220.312 31.0625C219.795 31.0625 219.375 30.6428 219.375 30.125C219.375 29.6072 219.795 29.1875 220.312 29.1875Z" fill="white"/>
</g>
<path d="M12.905 151L0.783 109.24H7.134L15.921 140.821L24.708 109.269L31.088 109.24L39.875 140.821L48.662 109.24H55.042L42.891 151H36.859L27.898 119.767L18.937 151H12.905ZM76.2038 151.87C72.0278 151.87 68.4705 150.961 65.5318 149.144C62.5932 147.307 60.3408 144.755 58.7748 141.488C57.2282 138.221 56.4548 134.431 56.4548 130.12C56.4548 125.809 57.2282 122.019 58.7748 118.752C60.3408 115.485 62.5932 112.942 65.5318 111.125C68.4705 109.288 72.0278 108.37 76.2038 108.37C80.3605 108.37 83.9082 109.288 86.8468 111.125C89.8048 112.942 92.0572 115.485 93.6038 118.752C95.1505 122.019 95.9238 125.809 95.9238 130.12C95.9238 134.431 95.1505 138.221 93.6038 141.488C92.0572 144.755 89.8048 147.307 86.8468 149.144C83.9082 150.961 80.3605 151.87 76.2038 151.87ZM76.2038 146.099C79.1618 146.138 81.6172 145.49 83.5698 144.156C85.5418 142.803 87.0208 140.927 88.0068 138.53C88.9928 136.113 89.4858 133.31 89.4858 130.12C89.4858 126.93 88.9928 124.146 88.0068 121.768C87.0208 119.371 85.5418 117.505 83.5698 116.171C81.6172 114.837 79.1618 114.16 76.2038 114.141C73.2458 114.102 70.7808 114.75 68.8088 116.084C66.8562 117.418 65.3868 119.293 64.4008 121.71C63.4148 124.127 62.9122 126.93 62.8928 130.12C62.8735 133.31 63.3568 136.104 64.3428 138.501C65.3288 140.879 66.8078 142.735 68.7798 144.069C70.7712 145.403 73.2458 146.08 76.2038 146.099ZM101.708 151V109.24H118.586C118.992 109.24 119.495 109.259 120.094 109.298C120.694 109.317 121.264 109.375 121.805 109.472C124.125 109.839 126.059 110.632 127.605 111.85C129.171 113.068 130.341 114.605 131.114 116.461C131.888 118.317 132.274 120.366 132.274 122.609C132.274 125.934 131.424 128.805 129.722 131.222C128.021 133.619 125.469 135.118 122.066 135.717L119.601 136.007H107.769V151H101.708ZM126.126 151L117.89 134.006L124.009 132.44L133.057 151H126.126ZM107.769 130.265H118.354C118.741 130.265 119.166 130.246 119.63 130.207C120.114 130.168 120.568 130.101 120.993 130.004C122.231 129.714 123.226 129.182 123.98 128.409C124.734 127.616 125.276 126.708 125.604 125.683C125.933 124.658 126.097 123.634 126.097 122.609C126.097 121.584 125.933 120.569 125.604 119.564C125.276 118.539 124.734 117.64 123.98 116.867C123.226 116.074 122.231 115.533 120.993 115.243C120.568 115.127 120.114 115.05 119.63 115.011C119.166 114.972 118.741 114.953 118.354 114.953H107.769V130.265ZM139.431 151V109.24H145.492V128.728L162.979 109.24H170.519L152.046 129.627L171.882 151H164.11L145.492 131.048V151H139.431ZM196.854 151V114.953H182.963V109.24H216.806V114.953H202.915V151H196.854ZM238.876 151.87C234.7 151.87 231.142 150.961 228.204 149.144C225.265 147.307 223.013 144.755 221.447 141.488C219.9 138.221 219.127 134.431 219.127 130.12C219.127 125.809 219.9 122.019 221.447 118.752C223.013 115.485 225.265 112.942 228.204 111.125C231.142 109.288 234.7 108.37 238.876 108.37C243.032 108.37 246.58 109.288 249.519 111.125C252.477 112.942 254.729 115.485 256.276 118.752C257.822 122.019 258.596 125.809 258.596 130.12C258.596 134.431 257.822 138.221 256.276 141.488C254.729 144.755 252.477 147.307 249.519 149.144C246.58 150.961 243.032 151.87 238.876 151.87ZM238.876 146.099C241.834 146.138 244.289 145.49 246.242 144.156C248.214 142.803 249.693 140.927 250.679 138.53C251.665 136.113 252.158 133.31 252.158 130.12C252.158 126.93 251.665 124.146 250.679 121.768C249.693 119.371 248.214 117.505 246.242 116.171C244.289 114.837 241.834 114.16 238.876 114.141C235.918 114.102 233.453 114.75 231.481 116.084C229.528 117.418 228.059 119.293 227.073 121.71C226.087 124.127 225.584 126.93 225.565 130.12C225.545 133.31 226.029 136.104 227.015 138.501C228.001 140.879 229.48 142.735 231.452 144.069C233.443 145.403 235.918 146.08 238.876 146.099ZM281.461 151.87C278.658 151.87 276.077 151.387 273.718 150.42C271.36 149.434 269.31 148.003 267.57 146.128C265.83 144.253 264.477 141.971 263.51 139.284C262.544 136.597 262.06 133.542 262.06 130.12C262.06 125.615 262.882 121.749 264.525 118.52C266.169 115.272 268.45 112.778 271.369 111.038C274.289 109.279 277.653 108.399 281.461 108.399C286.372 108.399 290.287 109.54 293.206 111.821C296.145 114.102 298.146 117.254 299.209 121.275L293.061 122.377C292.211 119.883 290.838 117.892 288.943 116.403C287.049 114.914 284.671 114.16 281.809 114.141C278.851 114.122 276.386 114.779 274.414 116.113C272.462 117.447 270.992 119.322 270.006 121.739C269.02 124.136 268.518 126.93 268.498 130.12C268.479 133.31 268.962 136.104 269.948 138.501C270.934 140.879 272.413 142.735 274.385 144.069C276.377 145.403 278.851 146.08 281.809 146.099C284.187 146.138 286.227 145.703 287.928 144.794C289.649 143.866 291.012 142.513 292.017 140.734C293.023 138.955 293.67 136.771 293.96 134.18H285.84V129.308H300.398C300.437 129.656 300.466 130.12 300.485 130.7C300.505 131.261 300.514 131.618 300.514 131.773C300.514 135.64 299.77 139.091 298.281 142.126C296.793 145.161 294.627 147.549 291.785 149.289C288.943 151.01 285.502 151.87 281.461 151.87ZM306.294 151V109.24H332.974V114.953H312.355V126.669H329.494V132.382H312.355V145.287H332.974V151H306.294ZM350.35 151V114.953H336.459V109.24H370.302V114.953H356.411V151H350.35ZM374.943 151V109.24H381.004V127.249H401.884V109.24H407.974V151H401.884V132.962H381.004V151H374.943ZM416.121 151V109.24H442.801V114.953H422.182V126.669H439.321V132.382H422.182V145.287H442.801V151H416.121ZM449.765 151V109.24H466.643C467.049 109.24 467.552 109.259 468.151 109.298C468.75 109.317 469.321 109.375 469.862 109.472C472.182 109.839 474.115 110.632 475.662 111.85C477.228 113.068 478.398 114.605 479.171 116.461C479.944 118.317 480.331 120.366 480.331 122.609C480.331 125.934 479.48 128.805 477.779 131.222C476.078 133.619 473.526 135.118 470.123 135.717L467.658 136.007H455.826V151H449.765ZM474.183 151L465.947 134.006L472.066 132.44L481.114 151H474.183ZM455.826 130.265H466.411C466.798 130.265 467.223 130.246 467.687 130.207C468.17 130.168 468.625 130.101 469.05 130.004C470.287 129.714 471.283 129.182 472.037 128.409C472.791 127.616 473.332 126.708 473.661 125.683C473.99 124.658 474.154 123.634 474.154 122.609C474.154 121.584 473.99 120.569 473.661 119.564C473.332 118.539 472.791 117.64 472.037 116.867C471.283 116.074 470.287 115.533 469.05 115.243C468.625 115.127 468.17 115.05 467.687 115.011C467.223 114.972 466.798 114.953 466.411 114.953H455.826V130.265Z" fill="white"/>
<defs>
<filter id="filter0_i_83_2140" x="160" y="6.5" width="134" height="70" filterUnits="userSpaceOnUse" color-interpolation-filters="sRGB">
<feFlood flood-opacity="0" result="BackgroundImageFix"/>
<feBlend mode="normal" in="SourceGraphic" in2="BackgroundImageFix" result="shape"/>
<feColorMatrix in="SourceAlpha" type="matrix" values="0 0 0 0 0 0 0 0 0 0 0 0 0 0 0 0 0 0 127 0" result="hardAlpha"/>
<feOffset dx="4" dy="4"/>
<feGaussianBlur stdDeviation="8.7"/>
<feComposite in2="hardAlpha" operator="arithmetic" k2="-1" k3="1"/>
<feColorMatrix type="matrix" values="0 0 0 0 1 0 0 0 0 1 0 0 0 0 1 0 0 0 0.28 0"/>
<feBlend mode="normal" in2="shape" result="effect1_innerShadow_83_2140"/>
</filter>
</defs>
</svg>
